# MagicaVoxel @ Ephtracy

# group
g room

# material
mtllib room.mtl
usemtl palette

# normals
vn -1 0 0
vn 1 0 0
vn 0 0 1
vn 0 0 -1
vn 0 -1 0
vn 0 1 0

# texcoords
vt 0.177734 0.5
vt 0.279297 0.5
vt 0.412109 0.5
vt 0.767578 0.5
vt 0.923828 0.5

# verts
v -25 0 25
v -25 0 24
v -25 32 25
v -25 32 24
v -20 0 24
v -20 0 20
v -20 0 14
v -20 0 -6
v -20 0 -20
v -20 1 24
v -20 1 20
v -20 1 15
v -20 1 14
v -20 1 5
v -20 1 4
v -20 1 -5
v -20 17 14
v -20 17 5
v -20 17 4
v -20 17 -5
v -20 18 15
v -20 18 -6
v -20 26 24
v -20 26 -19
v -20 28 24
v -20 28 -19
v -20 32 24
v -20 32 -20
v 7 12 -19
v 7 12 -20
v 7 21 -19
v 7 21 -20
v 24 0 -20
v 24 0 -25
v 24 1 24
v 24 1 -18
v 24 3 -18
v 24 3 -19
v 24 25 -18
v 24 25 -19
v 24 26 -18
v 24 26 -19
v 24 26 -20
v 24 28 -18
v 24 28 -19
v 24 28 -20
v 24 29 -18
v 24 29 -19
v 24 31 24
v 24 31 -19
v 24 32 -20
v 24 32 -25
v -19 3 24
v -19 3 15
v -19 3 -6
v -19 3 -19
v -19 18 15
v -19 18 -6
v -19 25 24
v -19 25 -19
v -19 26 24
v -19 26 -19
v -19 28 24
v -19 28 -19
v -19 29 24
v -19 29 -19
v -19 31 24
v -19 31 -19
v -18 1 24
v -18 1 20
v -18 1 15
v -18 1 14
v -18 1 5
v -18 1 4
v -18 1 -5
v -18 1 -6
v -18 1 -18
v -18 3 24
v -18 3 15
v -18 3 -6
v -18 3 -18
v -18 17 14
v -18 17 5
v -18 17 4
v -18 17 -5
v -18 18 15
v -18 18 -6
v -18 25 24
v -18 25 -18
v -18 26 24
v -18 26 -18
v -18 28 24
v -18 28 -18
v -18 29 24
v -18 29 -18
v -9 12 -19
v -9 12 -20
v -9 21 -19
v -9 21 -20
v 25 0 25
v 25 0 -25
v 25 26 -19
v 25 26 -20
v 25 28 -19
v 25 28 -20
v 25 32 25
v 25 32 -25
v -25 0 25
v -25 32 25
v -20 26 25
v -20 28 25
v -19 26 25
v -19 28 25
v 25 0 25
v 25 32 25
v -19 3 15
v -19 18 15
v -18 3 15
v -18 18 15
v -20 1 5
v -20 17 5
v -18 1 5
v -18 17 5
v -20 1 -5
v -20 17 -5
v -18 1 -5
v -18 17 -5
v -18 1 -18
v -18 3 -18
v -18 25 -18
v -18 26 -18
v -18 28 -18
v -18 29 -18
v 20 1 -18
v 24 1 -18
v 24 3 -18
v 24 25 -18
v 24 26 -18
v 24 28 -18
v 24 29 -18
v -19 3 -19
v -19 25 -19
v -19 26 -19
v -19 28 -19
v -19 29 -19
v -19 31 -19
v -10 11 -19
v -10 22 -19
v -9 12 -19
v -9 21 -19
v 7 12 -19
v 7 21 -19
v 8 11 -19
v 8 22 -19
v 24 3 -19
v 24 25 -19
v 24 26 -19
v 24 28 -19
v 24 29 -19
v 24 31 -19
v -25 0 24
v -25 32 24
v -20 0 24
v -20 1 24
v -20 26 24
v -20 28 24
v -20 32 24
v -19 3 24
v -19 25 24
v -19 26 24
v -19 28 24
v -19 29 24
v -19 31 24
v -18 1 24
v -18 3 24
v -18 25 24
v -18 26 24
v -18 28 24
v -18 29 24
v 24 1 24
v 24 31 24
v -20 1 14
v -20 17 14
v -18 1 14
v -18 17 14
v -20 1 4
v -20 17 4
v -18 1 4
v -18 17 4
v -19 3 -6
v -19 18 -6
v -18 3 -6
v -18 18 -6
v -20 0 -20
v -20 32 -20
v -19 26 -20
v -19 28 -20
v -10 11 -20
v -10 22 -20
v -9 12 -20
v -9 21 -20
v 7 12 -20
v 7 21 -20
v 8 11 -20
v 8 22 -20
v 24 0 -20
v 24 26 -20
v 24 28 -20
v 24 32 -20
v 24 0 -25
v 24 32 -25
v 25 0 -25
v 25 32 -25
v -25 0 25
v 25 0 25
v -25 0 24
v -20 0 24
v 24 0 24
v -20 0 20
v -19 0 20
v 20 0 20
v -20 0 14
v -19 0 14
v -18 0 14
v -20 0 -6
v -19 0 -6
v -18 0 -6
v -19 0 -19
v 20 0 -19
v 24 0 -19
v -20 0 -20
v 24 0 -20
v 24 0 -25
v 25 0 -25
v -20 17 14
v -18 17 14
v -20 17 5
v -18 17 5
v -20 17 4
v -18 17 4
v -20 17 -5
v -18 17 -5
v -9 21 -19
v 7 21 -19
v -9 21 -20
v 7 21 -20
v -19 25 24
v -18 25 24
v -18 25 -18
v 24 25 -18
v -19 25 -19
v 24 25 -19
v -19 28 24
v -18 28 24
v -18 28 -18
v 24 28 -18
v -19 28 -19
v 24 28 -19
v -19 31 24
v 24 31 24
v -19 31 -19
v 24 31 -19
v -18 1 24
v 24 1 24
v -18 1 20
v 20 1 20
v -18 1 15
v -20 1 14
v -18 1 14
v -20 1 5
v -18 1 5
v -20 1 4
v -18 1 4
v -20 1 -5
v -18 1 -5
v -18 1 -6
v -18 1 -18
v 20 1 -18
v 24 1 -18
v -19 3 24
v -18 3 24
v -19 3 15
v -18 3 15
v -19 3 -6
v -18 3 -6
v -18 3 -18
v 24 3 -18
v -19 3 -19
v 24 3 -19
v -9 12 -19
v 7 12 -19
v -9 12 -20
v 7 12 -20
v -19 18 15
v -18 18 15
v -19 18 -6
v -18 18 -6
v -19 26 24
v -18 26 24
v -18 26 -18
v 24 26 -18
v -19 26 -19
v 24 26 -19
v -19 29 24
v -18 29 24
v -18 29 -18
v 24 29 -18
v -19 29 -19
v 24 29 -19
v -25 32 25
v 25 32 25
v -25 32 24
v -20 32 24
v -20 32 -20
v 24 32 -20
v 24 32 -25
v 25 32 -25

# faces
f 3/3/1 2/3/1 1/3/1
f 4/3/1 2/3/1 3/3/1
f 10/1/1 6/1/1 5/1/1
f 11/3/1 7/3/1 6/3/1
f 11/1/1 6/1/1 10/1/1
f 12/3/1 7/3/1 11/3/1
f 13/5/1 8/5/1 7/5/1
f 13/3/1 7/3/1 12/3/1
f 14/5/1 8/5/1 13/5/1
f 15/5/1 8/5/1 14/5/1
f 16/5/1 8/5/1 15/5/1
f 17/5/1 13/5/1 12/5/1
f 18/5/1 15/5/1 14/5/1
f 19/5/1 15/5/1 18/5/1
f 20/5/1 8/5/1 16/5/1
f 21/3/1 12/3/1 11/3/1
f 21/5/1 20/5/1 19/5/1
f 21/3/1 11/3/1 10/3/1
f 21/5/1 19/5/1 18/5/1
f 21/5/1 18/5/1 17/5/1
f 21/5/1 17/5/1 12/5/1
f 22/3/1 9/3/1 8/3/1
f 22/5/1 20/5/1 21/5/1
f 22/5/1 8/5/1 20/5/1
f 23/3/1 21/3/1 10/3/1
f 23/3/1 22/3/1 21/3/1
f 24/3/1 9/3/1 22/3/1
f 24/3/1 22/3/1 23/3/1
f 25/4/1 24/4/1 23/4/1
f 26/3/1 9/3/1 24/3/1
f 26/4/1 24/4/1 25/4/1
f 27/3/1 26/3/1 25/3/1
f 28/3/1 9/3/1 26/3/1
f 28/3/1 26/3/1 27/3/1
f 31/5/1 30/5/1 29/5/1
f 32/5/1 30/5/1 31/5/1
f 37/3/1 36/3/1 35/3/1
f 39/3/1 37/3/1 35/3/1
f 39/3/1 38/3/1 37/3/1
f 40/3/1 38/3/1 39/3/1
f 41/3/1 39/3/1 35/3/1
f 43/3/1 34/3/1 33/3/1
f 44/3/1 42/3/1 41/3/1
f 44/3/1 41/3/1 35/3/1
f 45/3/1 42/3/1 44/3/1
f 46/3/1 34/3/1 43/3/1
f 47/3/1 44/3/1 35/3/1
f 49/3/1 47/3/1 35/3/1
f 49/3/1 48/3/1 47/3/1
f 50/3/1 48/3/1 49/3/1
f 51/3/1 34/3/1 46/3/1
f 52/3/1 34/3/1 51/3/1
f 53/3/2 54/3/2 57/3/2
f 55/3/2 56/3/2 58/3/2
f 53/3/2 57/3/2 59/3/2
f 57/3/2 58/3/2 59/3/2
f 58/3/2 56/3/2 60/3/2
f 59/3/2 58/3/2 60/3/2
f 61/4/2 62/4/2 63/4/2
f 63/4/2 62/4/2 64/4/2
f 65/3/2 66/3/2 67/3/2
f 67/3/2 66/3/2 68/3/2
f 69/1/2 70/1/2 78/1/2
f 70/1/2 71/1/2 78/1/2
f 71/5/2 72/5/2 79/5/2
f 78/1/2 71/1/2 79/1/2
f 76/1/2 77/1/2 80/1/2
f 75/5/2 76/5/2 80/5/2
f 80/1/2 77/1/2 81/1/2
f 79/5/2 72/5/2 82/5/2
f 73/5/2 74/5/2 83/5/2
f 83/5/2 74/5/2 84/5/2
f 75/5/2 80/5/2 85/5/2
f 83/5/2 84/5/2 86/5/2
f 84/5/2 85/5/2 86/5/2
f 79/5/2 82/5/2 86/5/2
f 82/5/2 83/5/2 86/5/2
f 85/5/2 80/5/2 87/5/2
f 86/5/2 85/5/2 87/5/2
f 88/1/2 89/1/2 90/1/2
f 90/1/2 89/1/2 91/1/2
f 92/1/2 93/1/2 94/1/2
f 94/1/2 93/1/2 95/1/2
f 96/5/2 97/5/2 98/5/2
f 98/5/2 97/5/2 99/5/2
f 100/3/2 101/3/2 102/3/2
f 102/3/2 101/3/2 103/3/2
f 100/3/2 102/3/2 104/3/2
f 102/4/2 103/4/2 104/4/2
f 103/3/2 101/3/2 105/3/2
f 104/4/2 103/4/2 105/4/2
f 100/3/2 104/3/2 106/3/2
f 104/3/2 105/3/2 106/3/2
f 105/3/2 101/3/2 107/3/2
f 106/3/2 105/3/2 107/3/2
f 110/3/3 109/3/3 108/3/3
f 111/3/3 109/3/3 110/3/3
f 112/3/3 110/3/3 108/3/3
f 112/4/3 111/4/3 110/4/3
f 113/3/3 109/3/3 111/3/3
f 113/4/3 111/4/3 112/4/3
f 114/3/3 112/3/3 108/3/3
f 114/3/3 113/3/3 112/3/3
f 115/3/3 109/3/3 113/3/3
f 115/3/3 113/3/3 114/3/3
f 118/5/3 117/5/3 116/5/3
f 119/5/3 117/5/3 118/5/3
f 122/5/3 121/5/3 120/5/3
f 123/5/3 121/5/3 122/5/3
f 126/5/3 125/5/3 124/5/3
f 127/5/3 125/5/3 126/5/3
f 134/1/3 129/1/3 128/1/3
f 135/1/3 129/1/3 134/1/3
f 136/1/3 129/1/3 135/1/3
f 137/1/3 131/1/3 130/1/3
f 138/1/3 131/1/3 137/1/3
f 139/1/3 133/1/3 132/1/3
f 140/1/3 133/1/3 139/1/3
f 147/3/3 142/3/3 141/3/3
f 148/3/3 142/3/3 147/3/3
f 149/5/3 148/5/3 147/5/3
f 150/5/3 148/5/3 149/5/3
f 151/5/3 149/5/3 147/5/3
f 152/5/3 148/5/3 150/5/3
f 153/3/3 147/3/3 141/3/3
f 153/5/3 152/5/3 151/5/3
f 153/5/3 151/5/3 147/5/3
f 154/5/3 148/5/3 152/5/3
f 154/5/3 152/5/3 153/5/3
f 154/3/3 142/3/3 148/3/3
f 155/3/3 153/3/3 141/3/3
f 155/3/3 154/3/3 153/3/3
f 156/3/3 142/3/3 154/3/3
f 156/3/3 154/3/3 155/3/3
f 157/4/3 144/4/3 143/4/3
f 158/4/3 144/4/3 157/4/3
f 159/3/3 146/3/3 145/3/3
f 160/3/3 146/3/3 159/3/3
f 161/3/4 162/3/4 163/3/4
f 163/3/4 162/3/4 164/3/4
f 164/3/4 162/3/4 165/3/4
f 165/3/4 162/3/4 166/3/4
f 166/3/4 162/3/4 167/3/4
f 168/3/4 169/3/4 175/3/4
f 175/3/4 169/3/4 176/3/4
f 170/3/4 171/3/4 177/3/4
f 177/3/4 171/3/4 178/3/4
f 172/3/4 173/3/4 179/3/4
f 177/3/4 178/3/4 180/3/4
f 178/3/4 179/3/4 180/3/4
f 175/3/4 176/3/4 180/3/4
f 174/3/4 175/3/4 180/3/4
f 176/3/4 177/3/4 180/3/4
f 179/3/4 173/3/4 181/3/4
f 180/3/4 179/3/4 181/3/4
f 182/5/4 183/5/4 184/5/4
f 184/5/4 183/5/4 185/5/4
f 186/5/4 187/5/4 188/5/4
f 188/5/4 187/5/4 189/5/4
f 190/5/4 191/5/4 192/5/4
f 192/5/4 191/5/4 193/5/4
f 194/3/4 195/3/4 196/3/4
f 196/3/4 195/3/4 197/3/4
f 194/3/4 196/3/4 198/3/4
f 198/3/4 196/3/4 199/3/4
f 198/5/4 199/5/4 200/5/4
f 200/5/4 199/5/4 201/5/4
f 198/5/4 200/5/4 202/5/4
f 201/5/4 199/5/4 203/5/4
f 194/3/4 198/3/4 204/3/4
f 202/5/4 203/5/4 204/5/4
f 198/5/4 202/5/4 204/5/4
f 203/5/4 199/5/4 205/5/4
f 204/5/4 203/5/4 205/5/4
f 199/3/4 196/3/4 205/3/4
f 194/3/4 204/3/4 206/3/4
f 204/3/4 205/3/4 206/3/4
f 196/4/4 197/4/4 207/4/4
f 206/3/4 205/3/4 207/3/4
f 205/3/4 196/3/4 207/3/4
f 197/3/4 195/3/4 208/3/4
f 207/4/4 197/4/4 208/4/4
f 208/3/4 195/3/4 209/3/4
f 210/3/4 211/3/4 212/3/4
f 212/3/4 211/3/4 213/3/4
f 216/3/5 215/3/5 214/3/5
f 217/3/5 215/3/5 216/3/5
f 218/3/5 215/3/5 217/3/5
f 219/1/5 218/1/5 217/1/5
f 220/1/5 218/1/5 219/1/5
f 221/1/5 218/1/5 220/1/5
f 222/3/5 220/3/5 219/3/5
f 223/2/5 221/2/5 220/2/5
f 223/3/5 220/3/5 222/3/5
f 224/2/5 221/2/5 223/2/5
f 225/5/5 223/5/5 222/5/5
f 225/5/5 224/5/5 223/5/5
f 226/5/5 224/5/5 225/5/5
f 227/2/5 221/2/5 224/2/5
f 227/5/5 224/5/5 226/5/5
f 228/3/5 226/3/5 225/3/5
f 228/2/5 227/2/5 226/2/5
f 229/1/5 218/1/5 221/1/5
f 229/2/5 227/2/5 228/2/5
f 229/2/5 221/2/5 227/2/5
f 230/3/5 215/3/5 218/3/5
f 230/1/5 218/1/5 229/1/5
f 231/3/5 229/3/5 228/3/5
f 231/3/5 228/3/5 225/3/5
f 231/3/5 230/3/5 229/3/5
f 232/3/5 215/3/5 230/3/5
f 232/3/5 230/3/5 231/3/5
f 233/3/5 215/3/5 232/3/5
f 234/3/5 215/3/5 233/3/5
f 237/5/5 236/5/5 235/5/5
f 238/5/5 236/5/5 237/5/5
f 241/5/5 240/5/5 239/5/5
f 242/5/5 240/5/5 241/5/5
f 245/5/5 244/5/5 243/5/5
f 246/5/5 244/5/5 245/5/5
f 249/1/5 248/1/5 247/1/5
f 251/1/5 249/1/5 247/1/5
f 251/1/5 250/1/5 249/1/5
f 252/1/5 250/1/5 251/1/5
f 255/1/5 254/1/5 253/1/5
f 257/1/5 255/1/5 253/1/5
f 257/1/5 256/1/5 255/1/5
f 258/1/5 256/1/5 257/1/5
f 261/3/5 260/3/5 259/3/5
f 262/3/5 260/3/5 261/3/5
f 263/1/6 264/1/6 265/1/6
f 265/1/6 264/1/6 266/1/6
f 265/2/6 266/2/6 267/2/6
f 267/2/6 266/2/6 269/2/6
f 268/5/6 269/5/6 270/5/6
f 269/2/6 266/2/6 271/2/6
f 270/5/6 269/5/6 271/5/6
f 271/2/6 266/2/6 273/2/6
f 272/5/6 273/5/6 274/5/6
f 273/2/6 266/2/6 275/2/6
f 274/5/6 273/5/6 275/5/6
f 275/2/6 266/2/6 276/2/6
f 276/2/6 266/2/6 277/2/6
f 266/1/6 264/1/6 278/1/6
f 277/2/6 266/2/6 278/2/6
f 278/1/6 264/1/6 279/1/6
f 280/1/6 281/1/6 282/1/6
f 282/1/6 281/1/6 283/1/6
f 284/1/6 285/1/6 286/1/6
f 284/1/6 286/1/6 288/1/6
f 286/1/6 287/1/6 288/1/6
f 288/1/6 287/1/6 289/1/6
f 290/5/6 291/5/6 292/5/6
f 292/5/6 291/5/6 293/5/6
f 294/5/6 295/5/6 296/5/6
f 296/5/6 295/5/6 297/5/6
f 298/1/6 299/1/6 300/1/6
f 298/1/6 300/1/6 302/1/6
f 300/1/6 301/1/6 302/1/6
f 302/1/6 301/1/6 303/1/6
f 304/1/6 305/1/6 306/1/6
f 304/1/6 306/1/6 308/1/6
f 306/1/6 307/1/6 308/1/6
f 308/1/6 307/1/6 309/1/6
f 310/3/6 311/3/6 312/3/6
f 312/3/6 311/3/6 313/3/6
f 313/3/6 311/3/6 314/3/6
f 314/3/6 311/3/6 315/3/6
f 315/3/6 311/3/6 316/3/6
f 316/3/6 311/3/6 317/3/6
