# MagicaVoxel @ Ephtracy

# group
g couch

# material
mtllib couch.mtl
usemtl palette

# normals
vn -1 0 0
vn 1 0 0
vn 0 0 1
vn 0 0 -1
vn 0 -1 0
vn 0 1 0

# texcoords
vt 0.177734 0.5
vt 0.873047 0.5
vt 0.919922 0.5
vt 0.923828 0.5
vt 0.958984 0.5

# verts
v -4 0 4
v -4 0 3
v -4 0 -3
v -4 0 -4
v -4 5 3
v -4 5 -3
v -4 6 4
v -4 6 3
v -4 6 2
v -4 6 1
v -4 6 -0
v -4 6 -1
v -4 6 -2
v -4 6 -3
v -4 7 4
v -4 7 3
v -4 7 2
v -4 7 1
v -4 7 -0
v -4 7 -1
v -4 7 -2
v -4 7 -3
v -4 16 -3
v -4 16 -4
v -3 7 -2
v -3 7 -3
v -3 8 -2
v -3 8 -3
v -3 9 -2
v -3 9 -3
v -3 10 -2
v -3 10 -3
v -3 11 -2
v -3 11 -3
v -3 12 -2
v -3 12 -3
v -3 13 -2
v -3 13 -3
v -3 14 -2
v -3 14 -3
v -3 15 -2
v -3 15 -3
v 3 0 4
v 3 0 3
v 3 0 -3
v 3 0 -4
v 3 5 4
v 3 5 3
v 3 5 -3
v 3 5 -4
v -3 0 4
v -3 0 3
v -3 0 -3
v -3 0 -4
v -3 5 4
v -3 5 3
v -3 5 -3
v -3 5 -4
v 3 7 -2
v 3 7 -3
v 3 8 -2
v 3 8 -3
v 3 9 -2
v 3 9 -3
v 3 10 -2
v 3 10 -3
v 3 11 -2
v 3 11 -3
v 3 12 -2
v 3 12 -3
v 3 13 -2
v 3 13 -3
v 3 14 -2
v 3 14 -3
v 3 15 -2
v 3 15 -3
v 4 0 4
v 4 0 3
v 4 0 -3
v 4 0 -4
v 4 5 3
v 4 5 -3
v 4 6 4
v 4 6 3
v 4 6 2
v 4 6 1
v 4 6 -0
v 4 6 -1
v 4 6 -2
v 4 6 -3
v 4 7 4
v 4 7 3
v 4 7 2
v 4 7 1
v 4 7 -0
v 4 7 -1
v 4 7 -2
v 4 7 -3
v 4 16 -3
v 4 16 -4
v -4 0 4
v -4 6 4
v -4 7 4
v -3 0 4
v -3 5 4
v 3 0 4
v 3 5 4
v 4 0 4
v 4 6 4
v 4 7 4
v -3 7 -2
v -3 8 -2
v -3 9 -2
v -3 10 -2
v -3 11 -2
v -3 12 -2
v -3 13 -2
v -3 14 -2
v -3 15 -2
v 3 7 -2
v 3 8 -2
v 3 9 -2
v 3 10 -2
v 3 11 -2
v 3 12 -2
v 3 13 -2
v 3 14 -2
v 3 15 -2
v -4 0 -3
v -4 5 -3
v -4 7 -3
v -4 16 -3
v -3 0 -3
v -3 5 -3
v -3 7 -3
v -3 8 -3
v -3 9 -3
v -3 10 -3
v -3 11 -3
v -3 12 -3
v -3 13 -3
v -3 14 -3
v -3 15 -3
v 3 0 -3
v 3 5 -3
v 3 7 -3
v 3 8 -3
v 3 9 -3
v 3 10 -3
v 3 11 -3
v 3 12 -3
v 3 13 -3
v 3 14 -3
v 3 15 -3
v 4 0 -3
v 4 5 -3
v 4 7 -3
v 4 16 -3
v -4 0 3
v -4 5 3
v -3 0 3
v -3 5 3
v 3 0 3
v 3 5 3
v 4 0 3
v 4 5 3
v -4 0 -4
v -4 16 -4
v -3 0 -4
v -3 5 -4
v 3 0 -4
v 3 5 -4
v 4 0 -4
v 4 16 -4
v -4 0 4
v -3 0 4
v 3 0 4
v 4 0 4
v -4 0 3
v -3 0 3
v 3 0 3
v 4 0 3
v -4 0 -3
v -3 0 -3
v 3 0 -3
v 4 0 -3
v -4 0 -4
v -3 0 -4
v 3 0 -4
v 4 0 -4
v -3 5 4
v 3 5 4
v -4 5 3
v -3 5 3
v 3 5 3
v 4 5 3
v -4 5 -3
v -3 5 -3
v 3 5 -3
v 4 5 -3
v -3 5 -4
v 3 5 -4
v -4 7 4
v 4 7 4
v -4 7 3
v 4 7 3
v -4 7 2
v 4 7 2
v -4 7 1
v 4 7 1
v -4 7 -0
v 4 7 -0
v -4 7 -1
v 4 7 -1
v -4 7 -2
v -3 7 -2
v 3 7 -2
v 4 7 -2
v -4 7 -3
v -3 7 -3
v 3 7 -3
v 4 7 -3
v -3 15 -2
v 3 15 -2
v -3 15 -3
v 3 15 -3
v -4 16 -3
v 4 16 -3
v -4 16 -4
v 4 16 -4

# faces
f 5/1/1 2/1/1 1/1/1
f 6/1/1 4/1/1 3/1/1
f 7/1/1 5/1/1 1/1/1
f 7/1/1 6/1/1 5/1/1
f 8/1/1 6/1/1 7/1/1
f 9/1/1 6/1/1 8/1/1
f 10/1/1 6/1/1 9/1/1
f 11/1/1 6/1/1 10/1/1
f 12/1/1 6/1/1 11/1/1
f 13/1/1 6/1/1 12/1/1
f 14/1/1 4/1/1 6/1/1
f 14/1/1 6/1/1 13/1/1
f 15/4/1 8/4/1 7/4/1
f 16/5/1 9/5/1 8/5/1
f 16/4/1 8/4/1 15/4/1
f 17/4/1 10/4/1 9/4/1
f 17/5/1 9/5/1 16/5/1
f 18/5/1 11/5/1 10/5/1
f 18/4/1 10/4/1 17/4/1
f 19/4/1 12/4/1 11/4/1
f 19/5/1 11/5/1 18/5/1
f 20/5/1 13/5/1 12/5/1
f 20/4/1 12/4/1 19/4/1
f 21/4/1 14/4/1 13/4/1
f 21/5/1 13/5/1 20/5/1
f 22/1/1 4/1/1 14/1/1
f 22/4/1 14/4/1 21/4/1
f 23/1/1 4/1/1 22/1/1
f 24/1/1 4/1/1 23/1/1
f 27/2/1 26/2/1 25/2/1
f 28/2/1 26/2/1 27/2/1
f 29/3/1 28/3/1 27/3/1
f 30/3/1 28/3/1 29/3/1
f 31/2/1 30/2/1 29/2/1
f 32/2/1 30/2/1 31/2/1
f 33/3/1 32/3/1 31/3/1
f 34/3/1 32/3/1 33/3/1
f 35/2/1 34/2/1 33/2/1
f 36/2/1 34/2/1 35/2/1
f 37/3/1 36/3/1 35/3/1
f 38/3/1 36/3/1 37/3/1
f 39/2/1 38/2/1 37/2/1
f 40/2/1 38/2/1 39/2/1
f 41/3/1 40/3/1 39/3/1
f 42/3/1 40/3/1 41/3/1
f 47/1/1 44/1/1 43/1/1
f 48/1/1 44/1/1 47/1/1
f 49/1/1 46/1/1 45/1/1
f 50/1/1 46/1/1 49/1/1
f 51/1/2 52/1/2 55/1/2
f 55/1/2 52/1/2 56/1/2
f 53/1/2 54/1/2 57/1/2
f 57/1/2 54/1/2 58/1/2
f 59/2/2 60/2/2 61/2/2
f 61/2/2 60/2/2 62/2/2
f 61/3/2 62/3/2 63/3/2
f 63/3/2 62/3/2 64/3/2
f 63/2/2 64/2/2 65/2/2
f 65/2/2 64/2/2 66/2/2
f 65/3/2 66/3/2 67/3/2
f 67/3/2 66/3/2 68/3/2
f 67/2/2 68/2/2 69/2/2
f 69/2/2 68/2/2 70/2/2
f 69/3/2 70/3/2 71/3/2
f 71/3/2 70/3/2 72/3/2
f 71/2/2 72/2/2 73/2/2
f 73/2/2 72/2/2 74/2/2
f 73/3/2 74/3/2 75/3/2
f 75/3/2 74/3/2 76/3/2
f 77/1/2 78/1/2 81/1/2
f 79/1/2 80/1/2 82/1/2
f 77/1/2 81/1/2 83/1/2
f 81/1/2 82/1/2 83/1/2
f 83/1/2 82/1/2 84/1/2
f 84/1/2 82/1/2 85/1/2
f 85/1/2 82/1/2 86/1/2
f 86/1/2 82/1/2 87/1/2
f 87/1/2 82/1/2 88/1/2
f 88/1/2 82/1/2 89/1/2
f 82/1/2 80/1/2 90/1/2
f 89/1/2 82/1/2 90/1/2
f 83/4/2 84/4/2 91/4/2
f 84/5/2 85/5/2 92/5/2
f 91/4/2 84/4/2 92/4/2
f 85/4/2 86/4/2 93/4/2
f 92/5/2 85/5/2 93/5/2
f 86/5/2 87/5/2 94/5/2
f 93/4/2 86/4/2 94/4/2
f 87/4/2 88/4/2 95/4/2
f 94/5/2 87/5/2 95/5/2
f 88/5/2 89/5/2 96/5/2
f 95/4/2 88/4/2 96/4/2
f 89/4/2 90/4/2 97/4/2
f 96/5/2 89/5/2 97/5/2
f 90/1/2 80/1/2 98/1/2
f 97/4/2 90/4/2 98/4/2
f 98/1/2 80/1/2 99/1/2
f 99/1/2 80/1/2 100/1/2
f 104/1/3 102/1/3 101/1/3
f 105/1/3 102/1/3 104/1/3
f 107/1/3 102/1/3 105/1/3
f 108/1/3 107/1/3 106/1/3
f 109/4/3 103/4/3 102/4/3
f 109/1/3 107/1/3 108/1/3
f 109/1/3 102/1/3 107/1/3
f 110/4/3 103/4/3 109/4/3
f 120/2/3 112/2/3 111/2/3
f 121/3/3 113/3/3 112/3/3
f 121/2/3 112/2/3 120/2/3
f 122/2/3 114/2/3 113/2/3
f 122/3/3 113/3/3 121/3/3
f 123/3/3 115/3/3 114/3/3
f 123/2/3 114/2/3 122/2/3
f 124/2/3 116/2/3 115/2/3
f 124/3/3 115/3/3 123/3/3
f 125/3/3 117/3/3 116/3/3
f 125/2/3 116/2/3 124/2/3
f 126/2/3 118/2/3 117/2/3
f 126/3/3 117/3/3 125/3/3
f 127/3/3 119/3/3 118/3/3
f 127/2/3 118/2/3 126/2/3
f 128/3/3 119/3/3 127/3/3
f 133/1/3 130/1/3 129/1/3
f 134/1/3 130/1/3 133/1/3
f 135/1/3 132/1/3 131/1/3
f 136/1/3 132/1/3 135/1/3
f 137/1/3 132/1/3 136/1/3
f 138/1/3 132/1/3 137/1/3
f 139/1/3 132/1/3 138/1/3
f 140/1/3 132/1/3 139/1/3
f 141/1/3 132/1/3 140/1/3
f 142/1/3 132/1/3 141/1/3
f 143/1/3 132/1/3 142/1/3
f 154/1/3 132/1/3 143/1/3
f 155/1/3 145/1/3 144/1/3
f 156/1/3 145/1/3 155/1/3
f 157/1/3 153/1/3 152/1/3
f 157/1/3 154/1/3 153/1/3
f 157/1/3 147/1/3 146/1/3
f 157/1/3 148/1/3 147/1/3
f 157/1/3 149/1/3 148/1/3
f 157/1/3 152/1/3 151/1/3
f 157/1/3 151/1/3 150/1/3
f 157/1/3 150/1/3 149/1/3
f 158/1/3 132/1/3 154/1/3
f 158/1/3 154/1/3 157/1/3
f 159/1/4 160/1/4 161/1/4
f 161/1/4 160/1/4 162/1/4
f 163/1/4 164/1/4 165/1/4
f 165/1/4 164/1/4 166/1/4
f 167/1/4 168/1/4 169/1/4
f 169/1/4 168/1/4 170/1/4
f 170/1/4 168/1/4 172/1/4
f 171/1/4 172/1/4 173/1/4
f 172/1/4 168/1/4 174/1/4
f 173/1/4 172/1/4 174/1/4
f 179/1/5 176/1/5 175/1/5
f 180/1/5 176/1/5 179/1/5
f 181/1/5 178/1/5 177/1/5
f 182/1/5 178/1/5 181/1/5
f 187/1/5 184/1/5 183/1/5
f 188/1/5 184/1/5 187/1/5
f 189/1/5 186/1/5 185/1/5
f 190/1/5 186/1/5 189/1/5
f 194/1/5 192/1/5 191/1/5
f 195/1/5 192/1/5 194/1/5
f 197/1/5 194/1/5 193/1/5
f 197/1/5 196/1/5 195/1/5
f 197/1/5 195/1/5 194/1/5
f 198/1/5 196/1/5 197/1/5
f 199/1/5 196/1/5 198/1/5
f 200/1/5 196/1/5 199/1/5
f 201/1/5 199/1/5 198/1/5
f 202/1/5 199/1/5 201/1/5
f 203/4/6 204/4/6 205/4/6
f 205/4/6 204/4/6 206/4/6
f 205/5/6 206/5/6 207/5/6
f 207/5/6 206/5/6 208/5/6
f 207/4/6 208/4/6 209/4/6
f 209/4/6 208/4/6 210/4/6
f 209/5/6 210/5/6 211/5/6
f 211/5/6 210/5/6 212/5/6
f 211/4/6 212/4/6 213/4/6
f 213/4/6 212/4/6 214/4/6
f 213/5/6 214/5/6 215/5/6
f 215/5/6 214/5/6 216/5/6
f 216/5/6 214/5/6 217/5/6
f 217/5/6 214/5/6 218/5/6
f 215/4/6 216/4/6 219/4/6
f 219/4/6 216/4/6 220/4/6
f 217/4/6 218/4/6 221/4/6
f 221/4/6 218/4/6 222/4/6
f 223/3/6 224/3/6 225/3/6
f 225/3/6 224/3/6 226/3/6
f 227/1/6 228/1/6 229/1/6
f 229/1/6 228/1/6 230/1/6
