# MagicaVoxel @ Ephtracy

# group
g DeClercq_K_Chair

# material
mtllib DeClercq_K_Chair.mtl
usemtl palette

# normals
vn -1 0 0
vn 1 0 0
vn 0 0 1
vn 0 0 -1
vn 0 -1 0
vn 0 1 0

# texcoords
vt 0.224609 0.5
vt 0.642578 0.5
vt 0.646484 0.5

# verts
v -7 1 27
v -7 1 25
v -7 1 20
v -7 1 18
v -7 4 27
v -7 4 25
v -7 4 20
v -7 4 18
v -7 9 27
v -7 9 26
v -7 9 19
v -7 9 18
v -7 10 26
v -7 10 25
v -7 10 20
v -7 10 19
v -7 11 25
v -7 11 20
v 0 1 27
v 0 1 25
v 0 1 20
v 0 1 18
v 0 4 27
v 0 4 25
v 0 4 20
v 0 4 18
v -5 1 27
v -5 1 25
v -5 1 20
v -5 1 18
v -5 4 27
v -5 4 25
v -5 4 20
v -5 4 18
v -5 8 27
v -5 8 26
v -5 8 25
v -5 8 20
v -5 8 19
v -5 8 18
v -5 9 27
v -5 9 26
v -5 9 25
v -5 9 24
v -5 9 21
v -5 9 20
v -5 9 19
v -5 9 18
v -5 10 26
v -5 10 25
v -5 10 24
v -5 10 21
v -5 10 20
v -5 10 19
v -5 11 25
v -5 11 20
v -4 7 26
v -4 7 25
v -4 7 20
v -4 7 19
v -4 8 26
v -4 8 25
v -4 8 24
v -4 8 21
v -4 8 20
v -4 8 19
v -4 9 25
v -4 9 24
v -4 9 21
v -4 9 20
v -4 10 24
v -4 10 21
v -3 7 25
v -3 7 20
v -3 8 25
v -3 8 24
v -3 8 21
v -3 8 20
v -3 9 24
v -3 9 21
v -2 6 25
v -2 6 20
v -2 7 25
v -2 7 20
v 2 1 27
v 2 1 25
v 2 1 20
v 2 1 18
v 2 4 27
v 2 4 25
v 2 4 20
v 2 4 18
v 2 5 25
v 2 5 20
v 2 6 25
v 2 6 20
v 2 7 26
v 2 7 25
v 2 7 20
v 2 7 19
v 2 8 27
v 2 8 26
v 2 8 19
v 2 8 18
v -7 1 27
v -7 4 27
v -7 9 27
v -5 1 27
v -5 4 27
v -5 8 27
v -5 9 27
v 0 1 27
v 0 4 27
v 2 1 27
v 2 4 27
v 2 8 27
v -7 9 26
v -7 10 26
v -5 9 26
v -5 10 26
v -7 10 25
v -7 11 25
v -5 8 25
v -5 9 25
v -5 10 25
v -5 11 25
v -4 7 25
v -4 8 25
v -4 9 25
v -3 7 25
v -3 8 25
v -5 9 24
v -5 10 24
v -4 8 24
v -4 9 24
v -4 10 24
v -3 8 24
v -3 9 24
v -7 1 20
v -7 4 20
v -5 1 20
v -5 4 20
v -2 6 20
v -2 7 20
v 0 1 20
v 0 4 20
v 2 1 20
v 2 4 20
v 2 6 20
v 2 7 20
v -4 7 19
v -4 8 19
v 2 7 19
v 2 8 19
v -4 7 26
v -4 8 26
v 2 7 26
v 2 8 26
v -7 1 25
v -7 4 25
v -5 1 25
v -5 4 25
v -2 6 25
v -2 7 25
v 0 1 25
v 0 4 25
v 2 1 25
v 2 4 25
v 2 6 25
v 2 7 25
v -5 9 21
v -5 10 21
v -4 8 21
v -4 9 21
v -4 10 21
v -3 8 21
v -3 9 21
v -7 10 20
v -7 11 20
v -5 8 20
v -5 9 20
v -5 10 20
v -5 11 20
v -4 7 20
v -4 8 20
v -4 9 20
v -3 7 20
v -3 8 20
v -7 9 19
v -7 10 19
v -5 9 19
v -5 10 19
v -7 1 18
v -7 4 18
v -7 9 18
v -5 1 18
v -5 4 18
v -5 8 18
v -5 9 18
v 0 1 18
v 0 4 18
v 2 1 18
v 2 4 18
v 2 8 18
v -7 1 27
v -5 1 27
v 0 1 27
v 2 1 27
v -7 1 25
v -5 1 25
v 0 1 25
v 2 1 25
v -7 1 20
v -5 1 20
v 0 1 20
v 2 1 20
v -7 1 18
v -5 1 18
v 0 1 18
v 2 1 18
v -5 4 27
v 0 4 27
v -7 4 25
v -5 4 25
v 0 4 25
v 2 4 25
v -7 4 20
v -5 4 20
v 0 4 20
v 2 4 20
v -5 4 18
v 0 4 18
v -2 6 25
v 2 6 25
v -2 6 20
v 2 6 20
v -4 7 26
v 2 7 26
v -4 7 25
v -3 7 25
v -2 7 25
v 2 7 25
v -4 7 20
v -3 7 20
v -2 7 20
v 2 7 20
v -4 7 19
v 2 7 19
v -5 8 27
v 2 8 27
v -5 8 26
v -4 8 26
v 2 8 26
v -5 8 25
v -4 8 25
v -3 8 25
v -4 8 24
v -3 8 24
v -4 8 21
v -3 8 21
v -5 8 20
v -4 8 20
v -3 8 20
v -5 8 19
v -4 8 19
v 2 8 19
v -5 8 18
v 2 8 18
v -7 9 27
v -5 9 27
v -7 9 26
v -5 9 26
v -5 9 25
v -4 9 25
v -5 9 24
v -4 9 24
v -3 9 24
v -5 9 21
v -4 9 21
v -3 9 21
v -5 9 20
v -4 9 20
v -7 9 19
v -5 9 19
v -7 9 18
v -5 9 18
v -7 10 26
v -5 10 26
v -7 10 25
v -5 10 25
v -5 10 24
v -4 10 24
v -5 10 21
v -4 10 21
v -7 10 20
v -5 10 20
v -7 10 19
v -5 10 19
v -7 11 25
v -5 11 25
v -7 11 20
v -5 11 20

# faces
f 5/1/1 2/1/1 1/1/1
f 6/1/1 2/1/1 5/1/1
f 7/1/1 4/1/1 3/1/1
f 8/1/1 4/1/1 7/1/1
f 9/3/1 6/3/1 5/3/1
f 9/3/1 7/3/1 6/3/1
f 9/3/1 8/3/1 7/3/1
f 10/3/1 8/3/1 9/3/1
f 11/3/1 8/3/1 10/3/1
f 12/3/1 8/3/1 11/3/1
f 13/3/1 11/3/1 10/3/1
f 14/3/1 11/3/1 13/3/1
f 15/3/1 11/3/1 14/3/1
f 16/3/1 11/3/1 15/3/1
f 17/3/1 15/3/1 14/3/1
f 18/3/1 15/3/1 17/3/1
f 23/1/1 20/1/1 19/1/1
f 24/1/1 20/1/1 23/1/1
f 25/1/1 22/1/1 21/1/1
f 26/1/1 22/1/1 25/1/1
f 27/1/2 28/1/2 31/1/2
f 31/1/2 28/1/2 32/1/2
f 29/1/2 30/1/2 33/1/2
f 33/1/2 30/1/2 34/1/2
f 35/3/2 36/3/2 41/3/2
f 36/3/2 37/3/2 41/3/2
f 41/3/2 37/3/2 42/3/2
f 42/3/2 37/3/2 43/3/2
f 39/3/2 40/3/2 46/3/2
f 38/3/2 39/3/2 46/3/2
f 46/3/2 40/3/2 47/3/2
f 47/3/2 40/3/2 48/3/2
f 43/3/2 44/3/2 49/3/2
f 42/3/2 43/3/2 49/3/2
f 49/3/2 44/3/2 50/3/2
f 50/3/2 44/3/2 51/3/2
f 46/3/2 47/3/2 52/3/2
f 45/3/2 46/3/2 52/3/2
f 52/3/2 47/3/2 53/3/2
f 53/3/2 47/3/2 54/3/2
f 50/3/2 51/3/2 55/3/2
f 52/3/2 53/3/2 55/3/2
f 51/3/2 52/3/2 55/3/2
f 55/3/2 53/3/2 56/3/2
f 57/2/2 58/2/2 61/2/2
f 61/2/2 58/2/2 62/2/2
f 59/2/2 60/2/2 65/2/2
f 65/2/2 60/2/2 66/2/2
f 62/2/2 63/2/2 67/2/2
f 67/2/2 63/2/2 68/2/2
f 64/2/2 65/2/2 69/2/2
f 69/2/2 65/2/2 70/2/2
f 68/2/2 69/2/2 71/2/2
f 71/2/2 69/2/2 72/2/2
f 73/2/2 74/2/2 75/2/2
f 75/2/2 74/2/2 76/2/2
f 76/2/2 74/2/2 77/2/2
f 77/2/2 74/2/2 78/2/2
f 76/2/2 77/2/2 79/2/2
f 79/2/2 77/2/2 80/2/2
f 81/2/2 82/2/2 83/2/2
f 83/2/2 82/2/2 84/2/2
f 85/1/2 86/1/2 89/1/2
f 89/1/2 86/1/2 90/1/2
f 87/1/2 88/1/2 91/1/2
f 91/1/2 88/1/2 92/1/2
f 89/3/2 90/3/2 93/3/2
f 90/3/2 91/3/2 93/3/2
f 91/3/2 92/3/2 93/3/2
f 93/3/2 92/3/2 94/3/2
f 89/3/2 93/3/2 95/3/2
f 93/2/2 94/2/2 95/2/2
f 94/3/2 92/3/2 96/3/2
f 95/2/2 94/2/2 96/2/2
f 89/3/2 95/3/2 97/3/2
f 97/3/2 95/3/2 98/3/2
f 96/3/2 92/3/2 99/3/2
f 99/3/2 92/3/2 100/3/2
f 89/3/2 97/3/2 101/3/2
f 101/3/2 97/3/2 102/3/2
f 100/3/2 92/3/2 103/3/2
f 103/3/2 92/3/2 104/3/2
f 108/1/3 106/1/3 105/1/3
f 109/3/3 107/3/3 106/3/3
f 109/1/3 106/1/3 108/1/3
f 110/3/3 107/3/3 109/3/3
f 111/3/3 107/3/3 110/3/3
f 113/3/3 110/3/3 109/3/3
f 114/1/3 113/1/3 112/1/3
f 115/3/3 110/3/3 113/3/3
f 115/1/3 113/1/3 114/1/3
f 116/3/3 110/3/3 115/3/3
f 119/3/3 118/3/3 117/3/3
f 120/3/3 118/3/3 119/3/3
f 125/3/3 122/3/3 121/3/3
f 126/3/3 122/3/3 125/3/3
f 128/2/3 124/2/3 123/2/3
f 129/2/3 124/2/3 128/2/3
f 130/2/3 128/2/3 127/2/3
f 131/2/3 128/2/3 130/2/3
f 135/2/3 133/2/3 132/2/3
f 136/2/3 133/2/3 135/2/3
f 137/2/3 135/2/3 134/2/3
f 138/2/3 135/2/3 137/2/3
f 141/1/3 140/1/3 139/1/3
f 142/1/3 140/1/3 141/1/3
f 147/1/3 146/1/3 145/1/3
f 148/1/3 146/1/3 147/1/3
f 149/3/3 144/3/3 143/3/3
f 150/3/3 144/3/3 149/3/3
f 153/3/3 152/3/3 151/3/3
f 154/3/3 152/3/3 153/3/3
f 155/3/4 156/3/4 157/3/4
f 157/3/4 156/3/4 158/3/4
f 159/1/4 160/1/4 161/1/4
f 161/1/4 160/1/4 162/1/4
f 165/1/4 166/1/4 167/1/4
f 167/1/4 166/1/4 168/1/4
f 163/3/4 164/3/4 169/3/4
f 169/3/4 164/3/4 170/3/4
f 171/2/4 172/2/4 174/2/4
f 174/2/4 172/2/4 175/2/4
f 173/2/4 174/2/4 176/2/4
f 176/2/4 174/2/4 177/2/4
f 178/3/4 179/3/4 182/3/4
f 182/3/4 179/3/4 183/3/4
f 180/2/4 181/2/4 185/2/4
f 185/2/4 181/2/4 186/2/4
f 184/2/4 185/2/4 187/2/4
f 187/2/4 185/2/4 188/2/4
f 189/3/4 190/3/4 191/3/4
f 191/3/4 190/3/4 192/3/4
f 193/1/4 194/1/4 196/1/4
f 194/3/4 195/3/4 197/3/4
f 196/1/4 194/1/4 197/1/4
f 197/3/4 195/3/4 198/3/4
f 198/3/4 195/3/4 199/3/4
f 197/3/4 198/3/4 201/3/4
f 200/1/4 201/1/4 202/1/4
f 201/3/4 198/3/4 203/3/4
f 202/1/4 201/1/4 203/1/4
f 203/3/4 198/3/4 204/3/4
f 209/1/5 206/1/5 205/1/5
f 210/1/5 206/1/5 209/1/5
f 211/1/5 208/1/5 207/1/5
f 212/1/5 208/1/5 211/1/5
f 217/1/5 214/1/5 213/1/5
f 218/1/5 214/1/5 217/1/5
f 219/1/5 216/1/5 215/1/5
f 220/1/5 216/1/5 219/1/5
f 224/3/5 222/3/5 221/3/5
f 225/3/5 222/3/5 224/3/5
f 227/3/5 224/3/5 223/3/5
f 227/3/5 226/3/5 225/3/5
f 227/3/5 225/3/5 224/3/5
f 228/3/5 226/3/5 227/3/5
f 229/3/5 226/3/5 228/3/5
f 230/3/5 226/3/5 229/3/5
f 231/3/5 229/3/5 228/3/5
f 232/3/5 229/3/5 231/3/5
f 233/2/6 234/2/6 235/2/6
f 235/2/6 234/2/6 236/2/6
f 237/3/6 238/3/6 239/3/6
f 239/3/6 238/3/6 240/3/6
f 240/3/6 238/3/6 241/3/6
f 241/3/6 238/3/6 242/3/6
f 240/2/6 241/2/6 244/2/6
f 244/2/6 241/2/6 245/2/6
f 243/3/6 244/3/6 247/3/6
f 245/3/6 246/3/6 247/3/6
f 244/3/6 245/3/6 247/3/6
f 247/3/6 246/3/6 248/3/6
f 249/3/6 250/3/6 251/3/6
f 251/3/6 250/3/6 252/3/6
f 252/3/6 250/3/6 253/3/6
f 251/2/6 252/2/6 254/2/6
f 254/2/6 252/2/6 255/2/6
f 255/2/6 256/2/6 257/2/6
f 257/2/6 256/2/6 258/2/6
f 259/2/6 260/2/6 262/2/6
f 262/2/6 260/2/6 263/2/6
f 261/2/6 262/2/6 264/2/6
f 264/2/6 262/2/6 265/2/6
f 264/3/6 265/3/6 267/3/6
f 265/3/6 266/3/6 267/3/6
f 267/3/6 266/3/6 268/3/6
f 269/3/6 270/3/6 271/3/6
f 271/3/6 270/3/6 272/3/6
f 273/2/6 274/2/6 275/2/6
f 275/2/6 274/2/6 276/2/6
f 276/2/6 277/2/6 279/2/6
f 279/2/6 277/2/6 280/2/6
f 278/2/6 279/2/6 281/2/6
f 281/2/6 279/2/6 282/2/6
f 283/3/6 284/3/6 285/3/6
f 285/3/6 284/3/6 286/3/6
f 287/3/6 288/3/6 289/3/6
f 289/3/6 288/3/6 290/3/6
f 291/2/6 292/2/6 293/2/6
f 293/2/6 292/2/6 294/2/6
f 295/3/6 296/3/6 297/3/6
f 297/3/6 296/3/6 298/3/6
f 299/3/6 300/3/6 301/3/6
f 301/3/6 300/3/6 302/3/6
